<?xml version="1.0" encoding="utf-8"?>
<!-- Generator: Adobe Illustrator 26.3.1, SVG Export Plug-In . SVG Version: 6.00 Build 0)  -->
<svg version="1.1" id="Layer_1" xmlns="http://www.w3.org/2000/svg" xmlns:xlink="http://www.w3.org/1999/xlink" x="0px" y="0px"
	 viewBox="0 0 1998.9 654.8" style="enable-background:new 0 0 1998.9 654.8;" xml:space="preserve">
<style type="text/css">
	.st0{fill:#009FE3;}
	.st1{clip-path:url(#SVGID_00000175301914364983457230000001162998396311411846_);fill:#009FE3;}
</style>
<path class="st0" d="M203.1,627.1L27.6,451.7l0.1-248.2L203.1,27.6l248.3,0.3l175.5,175.5v248.3L451.5,627.2L203.1,627.1z M191.6,0
	l-8.1,8.1L8.1,183.9L0.1,192v11.4L0,451.6v11.5l8.1,8.1l175.6,175.5l8.1,8.1h11.4h248.3H463l8.1-8.1l175.5-175.5l8.1-8.1v-11.4
	V203.4V192l-8.1-8.1L470.9,8.3l-8.1-8.1h-11.4L203.2,0.1L191.6,0z"/>
<g>
	<defs>
		<rect id="SVGID_1_" width="1998.9" height="654.8"/>
	</defs>
	<clipPath id="SVGID_00000141417650472889283690000003741612568566899869_">
		<use xlink:href="#SVGID_1_"  style="overflow:visible;"/>
	</clipPath>
	<path style="clip-path:url(#SVGID_00000141417650472889283690000003741612568566899869_);fill:#009FE3;" d="M160.2,386.2
		c0.4,0,1.6-0.1,3.7-0.1c2.1-0.1,4.6-0.3,7.3-0.4c2.8-0.2,5.8-0.5,9-0.9c3.2-0.4,6.2-0.9,8.9-1.7c3.2-0.9,6.9-2.6,10.9-4.7
		c4-2.2,8.4-6.2,13.2-11.9c4.6-5.4,8.2-11.2,10.9-17.5c2.7-6.3,4.6-12.3,5.9-18c1.3-5.7,2-10.7,2.4-15.2c0.4-4.5,0.6-7.7,0.6-9.6
		c0-6.7-0.6-12.1-1.9-16.3c-1.3-4.2-2.6-7.5-4.2-10c-1.1-1.8-2.2-3.1-3.3-4.2c-1.1-1.1-2-1.7-2.7-2.2c-3.6-2.7-7.9-4.4-12.8-5
		c-4.8-0.7-11.7-1.2-20.5-1.6h-12.9l-29.5,119.4L160.2,386.2L160.2,386.2z M183.1,225.3c8,0,16.3,0.2,25,0.5
		c8.6,0.4,17,1.5,25.2,3.6c8.2,2,15.9,5.1,22.9,9.4c7.1,4.2,13.2,10.2,18.4,17.8c1.7,2.5,3.3,5.2,4.7,8.2c1.4,3,2.8,6.3,3.9,10.2
		c1.1,3.8,2,8.1,2.8,12.9c0.7,4.8,1,10.4,1,16.6c0,4-0.3,9.7-1,17.1c-0.7,7.3-2.4,15.5-5,24.6c-2.7,9-6.7,18.2-12.2,27.7
		c-5.5,9.5-13.1,18.3-22.8,26.6c-3.1,2.7-7.9,6.1-14.3,10.3c-6.5,4.2-14.7,7.7-24.7,10.6c-10.3,3.2-21.1,5.1-32.4,5.6
		c-11.3,0.5-22.4,0.8-33.3,1H81.8l50.8-202.5L183.1,225.3L183.1,225.3z"/>
	<polygon style="clip-path:url(#SVGID_00000141417650472889283690000003741612568566899869_);fill:#009FE3;" points="286.6,427.8 
		337.4,225.2 389.9,225.2 339.4,427.8 	"/>
	<path style="clip-path:url(#SVGID_00000141417650472889283690000003741612568566899869_);fill:#009FE3;" d="M495.5,276.6
		l-36.1,70.3h36.7L495.5,276.6z M534.2,225.3l21.3,202.5h-54.2l-2.9-40.2h-59.7l-23.5,40.2h-57.1L482,225.3H534.2z"/>
	<path style="clip-path:url(#SVGID_00000141417650472889283690000003741612568566899869_);fill:#009FE3;" d="M826.4,274.3
		c-9.1,2.8-16.4,2.8-25.7,2.8h-33.4v-105h37.6c4.8,0,10.6,0.3,15.1,1.2c5.2,1,16.5,4.4,25.3,15.7c4.6,6.1,10.8,17.8,10.8,36.5
		C856.1,246.4,848.1,267.3,826.4,274.3 M825.2,196.7c-1.8-1.5-5.4-4.2-11-5.7c-5-1.3-7.7-1.2-17-1.2h-10.4v69.6h5.2
		c10.6,0,16.8-0.1,21.6-0.9c2.7-0.5,10.1-1.6,15.5-8.2c6.5-8.3,6.3-23.7,6.3-25C835.3,209.8,830.5,201.4,825.2,196.7"/>
	<path style="clip-path:url(#SVGID_00000141417650472889283690000003741612568566899869_);fill:#009FE3;" d="M890,233.1
		c-1.3,4.2-1.3,7.9-1.3,12.2v31.8h-17.2v-74.3h17.2v10.6c1.2-2.2,2.7-4.4,4.4-6.1c5.9-5.8,15.6-6.1,17.7-6.1h1.5v18.3
		C908.6,219.4,894.3,219.4,890,233.1"/>
	<path style="clip-path:url(#SVGID_00000141417650472889283690000003741612568566899869_);fill:#009FE3;" d="M924.2,173.2h17.7v18
		h-17.7V173.2z M924.2,202.8h17.7v74.3h-17.7V202.8z"/>
	<polygon style="clip-path:url(#SVGID_00000141417650472889283690000003741612568566899869_);fill:#009FE3;" points="996.8,277.1 
		977.8,277.1 953.7,202.8 972.1,202.8 987.6,253.9 1002.8,202.8 1021.4,202.8 	"/>
	<path style="clip-path:url(#SVGID_00000141417650472889283690000003741612568566899869_);fill:#009FE3;" d="M1032.7,173.2h17.7v18
		h-17.7V173.2z M1032.7,202.8h17.7v74.3h-17.7V202.8z"/>
	<path style="clip-path:url(#SVGID_00000141417650472889283690000003741612568566899869_);fill:#009FE3;" d="M1117,277.1v-37.9
		c0-5.8,0-8.6-0.7-11.4c-2.1-8.6-8.7-9.8-12.3-9.8c-2,0-5.7,0.3-9.4,3.4c-5.4,4.4-7,10.7-7,23.5v32.3h-18v-74.3h18v8.7
		c0.3-0.5,1.8-2.4,3.3-3.8c7-6.5,17.1-7.1,19.6-7.1c11,0,17.4,5.7,19.8,9.1c4.8,6.9,4.3,16.2,4.3,23.8v43.7L1117,277.1L1117,277.1z"
		/>
	<path style="clip-path:url(#SVGID_00000141417650472889283690000003741612568566899869_);fill:#009FE3;" d="M1216.4,290.7
		c-4.6,6.3-14.3,11.3-31.1,11.3c-16.7,0-24.8-4.6-29.5-11.2c-1.8-2.7-3.1-5.8-4.6-12.2l19.6,0.1c0.5,1.5,0.7,2.4,1.8,3.7
		c3.8,5.7,12,5.5,13.4,5.5c8.9,0,13.5-3.4,15.5-7c2.1-3.8,2-7.7,2-16.1c-8.3,7.5-18.8,7.9-22.5,7.9c-4.4,0-9.4-0.7-13.5-2.7
		c-7.9-3.4-18.6-12.3-18.6-32.7c0-2.4,0-9.4,2.6-15.9c5-12.9,17.1-21,31.1-21c2.6,0,9.7,0.3,15.7,4.8c2.7,2,4.6,4.4,5.2,5.4v-7.9
		h17.7v61.2C1221.1,272.6,1222,283.1,1216.4,290.7 M1202.7,229.2c-1.2-4-5.2-12.8-17.2-12.8c-2.6,0-8.5,0.5-13.3,5.7
		c-5.2,5.7-5,12.5-5,14.9c0,2.4,0,8.7,4.8,14.1c0.7,0.7,2.4,2.4,4.8,3.6c1.5,0.7,4.4,2,8.9,2c7.1,0,11.2-2.8,13.3-5c5-5,5-11.6,5-14
		C1203.8,233.4,1203.3,230.9,1202.7,229.2"/>
	
		<rect x="1285.2" y="172.1" style="clip-path:url(#SVGID_00000141417650472889283690000003741612568566899869_);fill:#009FE3;" width="19.3" height="105"/>
	<path style="clip-path:url(#SVGID_00000141417650472889283690000003741612568566899869_);fill:#009FE3;" d="M1373.6,277.1v-37.9
		c0-5.8,0-8.6-0.7-11.4c-2.1-8.6-8.7-9.8-12.3-9.8c-2,0-5.7,0.3-9.4,3.4c-5.4,4.4-7,10.7-7,23.5v32.3h-18v-74.3h18v8.7
		c0.3-0.5,1.8-2.4,3.3-3.8c7-6.5,17.1-7.1,19.6-7.1c11,0,17.4,5.7,19.8,9.1c4.8,6.9,4.3,16.2,4.3,23.8v43.7L1373.6,277.1
		L1373.6,277.1z"/>
	<path style="clip-path:url(#SVGID_00000141417650472889283690000003741612568566899869_);fill:#009FE3;" d="M1470.3,264.1
		c-3.6,6.9-12.8,15.3-31,15.3c-14,0-24-4.8-28.5-7.6c-2.6-1.6-4.9-3.6-7.1-5.8l13.4-10.8c0.6,0.7,1.5,2.1,3.4,3.7
		c6.4,5.5,15.9,5.8,18,5.8c4.4,0,9.7-1,12.6-4.4c1.2-1.2,2-2.8,2-4.3c0-0.6-0.1-1.8-1.2-3.1c-2-2.7-4.3-2.8-9.8-4
		c-4.9-1-9.8-1.6-14.6-2.8c-3.3-0.9-20.5-5-20.5-21.1c0-5.7,2.4-9.8,3.4-11.4c3.7-5.8,12.5-12.8,28.5-12.8c5.8,0,20.8,0.9,32,13.9
		l-12.6,11.8c-1.5-3.1-3.4-4.9-4.6-5.9c-4.6-4-9.5-5.4-15.6-5.4c-0.7,0-5.8,0-9.1,2.2c-2.7,1.8-3.3,4.2-3.3,5.5
		c0.1,2.6,2,4.3,2.4,4.6c2,1.5,6.9,2.7,12.8,3.7c4,0.7,8,1.3,12,2.2c4,0.9,8.5,2.2,11.8,4.6c2.7,2,8.2,7.1,8.2,16.2
		C1472.8,257.5,1471.9,260.9,1470.3,264.1"/>
	<path style="clip-path:url(#SVGID_00000141417650472889283690000003741612568566899869_);fill:#009FE3;" d="M1510.2,277.7
		c-9.8,0-14.9-2.4-17.8-5.9c-1.5-1.8-2.1-3.6-2.2-4.3c-0.7-2.4-0.9-7.6-0.9-14.1v-37.9h-10.9v-12.6h10.8v-26.4h17.8v26.4h15.9v12.6
		h-15.9v33.8c0,3-0.5,8.6,1.8,11c2.1,2.4,6.4,2.2,6.9,2.2c2.6,0,5-0.3,7.3-0.9v15C1520.7,276.9,1516.4,277.7,1510.2,277.7"/>
	<path style="clip-path:url(#SVGID_00000141417650472889283690000003741612568566899869_);fill:#009FE3;" d="M1552.5,233.1
		c-1.3,4.2-1.3,7.9-1.3,12.2v31.8h-17.2v-74.3h17.2v10.6c1.2-2.2,2.7-4.4,4.4-6.1c5.9-5.8,15.6-6.1,17.7-6.1h1.5v18.3
		C1571.1,219.4,1556.8,219.4,1552.5,233.1"/>
	<path style="clip-path:url(#SVGID_00000141417650472889283690000003741612568566899869_);fill:#009FE3;" d="M1636.1,277.1l-0.1-7.6
		c-3.7,3.4-11,9.4-24,9.4c-12.3,0-18.4-5.4-21.4-9.8c-4.8-7-4.3-15.5-4.3-23.5v-42.9h18v40.2c0,6.1-0.3,13.4,5.9,17
		c2.4,1.5,5.8,2.2,8.6,2.2c8.6,0,12.9-5.7,14.4-8.3c3-5.7,2.8-13.7,2.8-19.5v-31.6h17.8V277h-17.8V277.1z"/>
	<path style="clip-path:url(#SVGID_00000141417650472889283690000003741612568566899869_);fill:#009FE3;" d="M1732.9,265.2
		c-6.7,9.1-17.7,14.1-28.9,14.1c-2.7,0-8.7-0.5-15.5-3.4c-19.8-9.1-21.3-29.7-21.3-36c0-9.1,2.6-17.8,8-25
		c3.6-4.8,12.9-14.4,29.6-14.4c4.8,0,9.5,0.9,13.9,2.7c4.3,1.8,13.3,7,18.2,18.4l-15.9,7.5c-1.2-4-3.4-6.5-4.4-7.6
		c-2.1-2.1-5.7-5-12.5-5c-5.2,0-9.4,1.8-12.8,5.8c-5.5,6.4-5.5,14.7-5.5,17.2c0,3.8,0.6,6.7,1,8.2c2.2,8.6,8.3,15,17.7,15
		c12.8,0,16.7-11.3,18-14.6l15.1,8C1736.5,259.3,1735,262.4,1732.9,265.2"/>
	<path style="clip-path:url(#SVGID_00000141417650472889283690000003741612568566899869_);fill:#009FE3;" d="M1773.1,277.7
		c-9.8,0-14.9-2.4-17.8-5.9c-1.5-1.8-2.1-3.6-2.2-4.3c-0.7-2.4-0.9-7.6-0.9-14.1v-37.9h-10.8v-12.6h10.8v-26.4h17.8v26.4h15.9v12.6
		H1770v33.8c0,3-0.5,8.6,1.8,11c2.1,2.4,6.4,2.2,6.9,2.2c2.6,0,5-0.3,7.3-0.9v15C1783.5,276.9,1779.2,277.7,1773.1,277.7"/>
	<path style="clip-path:url(#SVGID_00000141417650472889283690000003741612568566899869_);fill:#009FE3;" d="M1865.9,256.4
		c-3,7.6-12.6,23.1-34.8,23.1c-3.1,0-9.5-0.1-16.8-3.4c-7.7-3.4-21.9-13.9-21.9-36.3c0-8,2.2-14,3.3-16.7
		c3.1-7.5,12.6-22.5,34.8-22.5c2.8,0,9.4,0.3,16.3,3.4c8,3.4,21.9,13.4,22,35.7C1868.9,242.4,1868.7,249.4,1865.9,256.4
		 M1830.2,216.6c-1.6,0-6.1,0.3-10.1,2.8c-3.9,2.6-9.1,8.6-9.1,19.8c0,3.6,0.3,6.7,1.5,10.1c1.2,3.6,6.4,13.7,18.6,13.7
		c13.5,0,19.6-11.9,19.2-23.6C1850,227.8,1843.3,216.6,1830.2,216.6"/>
	<path style="clip-path:url(#SVGID_00000141417650472889283690000003741612568566899869_);fill:#009FE3;" d="M1902,233.1
		c-1.3,4.2-1.3,7.9-1.3,12.2v31.8h-17.2v-74.3h17.2v10.6c1.2-2.2,2.7-4.4,4.4-6.1c5.9-5.8,15.6-6.1,17.7-6.1h1.5v18.3
		C1920.6,219.4,1906.3,219.4,1902,233.1"/>
	<path style="clip-path:url(#SVGID_00000141417650472889283690000003741612568566899869_);fill:#009FE3;" d="M1996.5,264.1
		c-3.6,6.9-12.8,15.3-31,15.3c-14,0-24-4.8-28.5-7.6c-2.6-1.6-4.9-3.6-7.1-5.8l13.4-10.8c0.6,0.7,1.5,2.1,3.4,3.7
		c6.4,5.5,15.9,5.8,18,5.8c4.4,0,9.7-1,12.6-4.4c1.2-1.2,2-2.8,2-4.3c0-0.6-0.1-1.8-1.2-3.1c-2-2.7-4.3-2.8-9.8-4
		c-4.9-1-9.8-1.6-14.6-2.8c-3.3-0.9-20.5-5-20.5-21.1c0-5.7,2.4-9.8,3.4-11.4c3.7-5.8,12.5-12.8,28.5-12.8c5.8,0,20.9,0.9,32,13.9
		l-12.6,11.8c-1.5-3.1-3.4-4.9-4.6-5.9c-4.6-4-9.5-5.4-15.6-5.4c-0.7,0-5.8,0-9.1,2.2c-2.7,1.8-3.3,4.2-3.3,5.5
		c0.1,2.6,2,4.3,2.4,4.6c2,1.5,6.9,2.7,12.8,3.7c4,0.7,8,1.3,12,2.2c4,0.9,8.5,2.2,11.8,4.6c2.7,2,8.2,7.1,8.2,16.2
		C1999,257.5,1998.1,260.9,1996.5,264.1"/>
	<path style="clip-path:url(#SVGID_00000141417650472889283690000003741612568566899869_);fill:#009FE3;" d="M830.2,455.6l-6.1-20.5
		h-39.4l-6.1,20.5h-21.1l35.5-105h22.3l35.9,105H830.2z M804.5,369.5l-14.6,48.3h29L804.5,369.5z"/>
	<path style="clip-path:url(#SVGID_00000141417650472889283690000003741612568566899869_);fill:#009FE3;" d="M922.6,442.5
		c-3.6,6.9-12.8,15.3-31,15.3c-14,0-24-4.8-28.5-7.6c-2.6-1.6-4.9-3.6-7.1-5.8l13.4-10.8c0.6,0.7,1.5,2.1,3.4,3.7
		c6.4,5.5,15.9,5.8,18,5.8c4.4,0,9.7-1,12.6-4.4c1.2-1.2,2-2.8,2-4.3c0-0.6-0.1-1.8-1.2-3.1c-2-2.7-4.3-2.8-9.8-4
		c-4.9-1-9.8-1.6-14.6-2.8c-3.3-0.9-20.5-5-20.5-21.1c0-5.7,2.4-9.8,3.4-11.4c3.7-5.8,12.5-12.8,28.5-12.8c5.8,0,20.8,0.9,32,13.9
		l-12.6,11.8c-1.5-3.1-3.4-4.9-4.6-5.9c-4.6-4-9.5-5.4-15.6-5.4c-0.7,0-5.8,0-9.1,2.2c-2.7,1.8-3.3,4.2-3.3,5.5
		c0.1,2.6,2,4.3,2.4,4.6c2,1.5,6.9,2.7,12.8,3.7c4,0.7,8,1.3,12,2.2c4,0.9,8.5,2.2,11.8,4.6c2.7,2,8.2,7.1,8.2,16.2
		C925.1,436,924.2,439.4,922.6,442.5"/>
	<path style="clip-path:url(#SVGID_00000141417650472889283690000003741612568566899869_);fill:#009FE3;" d="M1000.1,442.5
		c-3.6,6.9-12.8,15.3-31,15.3c-14,0-24-4.8-28.5-7.6c-2.6-1.6-4.9-3.6-7.1-5.8l13.4-10.8c0.6,0.7,1.5,2.1,3.4,3.7
		c6.4,5.5,15.9,5.8,18,5.8c4.4,0,9.7-1,12.6-4.4c1.2-1.2,2-2.8,2-4.3c0-0.6-0.1-1.8-1.2-3.1c-2-2.7-4.3-2.8-9.8-4
		c-4.9-1-9.8-1.6-14.6-2.8c-3.3-0.9-20.5-5-20.5-21.1c0-5.7,2.4-9.8,3.4-11.4c3.7-5.8,12.5-12.8,28.5-12.8c5.8,0,20.8,0.9,32,13.9
		L988,404.7c-1.5-3.1-3.4-4.9-4.6-5.9c-4.6-4-9.5-5.4-15.6-5.4c-0.7,0-5.8,0-9.1,2.2c-2.7,1.8-3.3,4.2-3.3,5.5
		c0.1,2.6,2,4.3,2.4,4.6c2,1.5,6.9,2.7,12.8,3.7c4,0.7,8,1.3,12,2.2c4,0.9,8.5,2.2,11.8,4.6c2.7,2,8.2,7.1,8.2,16.2
		C1002.6,436,1001.7,439.4,1000.1,442.5"/>
	<path style="clip-path:url(#SVGID_00000141417650472889283690000003741612568566899869_);fill:#009FE3;" d="M1086.4,434.8
		c-3,7.6-12.7,23.1-34.8,23.1c-3.1,0-9.5-0.1-16.8-3.4c-7.7-3.4-21.9-13.9-21.9-36.3c0-8,2.2-14,3.3-16.7
		c3.1-7.5,12.6-22.5,34.8-22.5c2.8,0,9.4,0.3,16.3,3.4c8,3.4,21.9,13.4,22,35.7C1089.3,420.9,1089.2,427.9,1086.4,434.8
		 M1050.6,395.1c-1.6,0-6.1,0.3-10.1,2.8c-3.8,2.6-9.1,8.6-9.1,19.8c0,3.6,0.3,6.7,1.5,10.1c1.2,3.6,6.4,13.7,18.6,13.7
		c13.5,0,19.6-11.9,19.2-23.7C1070.4,406.3,1063.8,395.1,1050.6,395.1"/>
	<path style="clip-path:url(#SVGID_00000141417650472889283690000003741612568566899869_);fill:#009FE3;" d="M1163.5,443.7
		c-6.7,9.1-17.7,14.1-28.9,14.1c-2.7,0-8.7-0.5-15.5-3.4c-19.8-9.1-21.3-29.7-21.3-36c0-9.1,2.6-17.8,8-25
		c3.6-4.8,12.9-14.4,29.6-14.4c4.8,0,9.5,0.9,13.9,2.7c4.3,1.8,13.3,7,18.2,18.4l-15.9,7.5c-1.2-4-3.4-6.5-4.4-7.6
		c-2.1-2.1-5.7-5-12.5-5c-5.2,0-9.4,1.8-12.8,5.8c-5.5,6.4-5.5,14.7-5.5,17.2c0,3.8,0.6,6.7,1,8.2c2.2,8.6,8.3,15,17.7,15
		c12.8,0,16.7-11.3,18-14.6l15.1,8C1167.1,437.8,1165.6,440.9,1163.5,443.7"/>
	<path style="clip-path:url(#SVGID_00000141417650472889283690000003741612568566899869_);fill:#009FE3;" d="M1181,351.6h17.7v18
		H1181V351.6z M1181,381.3h17.7v74.3H1181V381.3z"/>
	<path style="clip-path:url(#SVGID_00000141417650472889283690000003741612568566899869_);fill:#009FE3;" d="M1261.7,455.6l-0.5-5.8
		c-2.8,2.4-5.4,3.6-6.9,4.2c-4.9,2.2-9.5,3.4-15,3.4c-3.6,0-17-0.5-23.8-11.4c-1.2-2-3.4-5.9-3.3-11.9c0-4.2,1-12.5,10.1-18.6
		c6.1-4.2,11.9-5,18.8-6.4c11-2.2,15-3.1,20.5-5c0-2-0.1-4.3-1-6.1c-1.5-2.8-5.2-5-11.8-5c-6.9,0-11.2,2.1-13.1,4.6
		c-2.1,2.6-2,5.5-2,6.5l-18.2-1c0.1-3.3,0.7-11.2,8-17.1c4.6-3.8,11.6-6.9,24.6-6.9c12.2,0,19.3,2.6,24,5.8c3.1,2.2,4.8,4.8,5.4,5.9
		c2,3.8,2,9.1,2,13.3v39.6c0,5.7,0.3,7.3,3.3,12L1261.7,455.6L1261.7,455.6z M1261.7,418.6c-3,1.5-6.9,3-14.1,4.2
		c-4,0.7-8.3,0.9-12,3.1c-2.6,1.6-4.3,4.2-4.3,7.5c0,4.4,3.3,8.7,12.2,8.7c9.8,0,15.6-5,17.2-8.5c1.2-2.4,1-4.4,1-6.9L1261.7,418.6
		L1261.7,418.6z"/>
	<path style="clip-path:url(#SVGID_00000141417650472889283690000003741612568566899869_);fill:#009FE3;" d="M1321.5,456.2
		c-9.8,0-14.9-2.4-17.8-5.9c-1.5-1.8-2.1-3.6-2.2-4.3c-0.7-2.4-0.9-7.6-0.9-14.1v-37.9h-10.8v-12.6h10.8v-26.5h17.8v26.5h15.9v12.6
		h-15.9v33.7c0,3-0.5,8.6,1.8,11c2.1,2.4,6.4,2.2,6.9,2.2c2.6,0,5-0.3,7.3-0.9v15C1331.9,455.4,1327.6,456.2,1321.5,456.2"/>
	<path style="clip-path:url(#SVGID_00000141417650472889283690000003741612568566899869_);fill:#009FE3;" d="M1345.3,351.6h17.7v18
		h-17.7V351.6z M1345.3,381.3h17.7v74.3h-17.7V381.3z"/>
	<path style="clip-path:url(#SVGID_00000141417650472889283690000003741612568566899869_);fill:#009FE3;" d="M1451.5,434.8
		c-3,7.6-12.7,23.1-34.8,23.1c-3.1,0-9.5-0.1-16.8-3.4c-7.7-3.4-21.9-13.9-21.9-36.3c0-8,2.2-14,3.3-16.7
		c3.1-7.5,12.6-22.5,34.8-22.5c2.8,0,9.4,0.3,16.3,3.4c8,3.4,21.9,13.4,22,35.7C1454.5,420.9,1454.3,427.9,1451.5,434.8
		 M1415.8,395.1c-1.6,0-6.1,0.3-10.1,2.8c-3.8,2.6-9.1,8.6-9.1,19.8c0,3.6,0.3,6.7,1.5,10.1c1.2,3.6,6.4,13.7,18.6,13.7
		c13.5,0,19.6-11.9,19.2-23.7C1435.6,406.3,1428.9,395.1,1415.8,395.1"/>
	<path style="clip-path:url(#SVGID_00000141417650472889283690000003741612568566899869_);fill:#009FE3;" d="M1516.4,455.6v-37.9
		c0-5.8,0-8.6-0.7-11.4c-2.1-8.6-8.7-9.8-12.3-9.8c-2,0-5.7,0.3-9.4,3.4c-5.4,4.4-7,10.7-7,23.5v32.3h-18v-74.3h18v8.7
		c0.3-0.5,1.8-2.4,3.3-3.8c7-6.5,17.1-7.1,19.6-7.1c11,0,17.4,5.7,19.8,9.1c4.8,6.9,4.3,16.2,4.3,23.8v43.7L1516.4,455.6
		L1516.4,455.6z"/>
</g>
</svg>
